<?xml version="1.0" encoding="utf-8"?>
<!-- Generator: Adobe Illustrator 27.6.1, SVG Export Plug-In . SVG Version: 6.00 Build 0)  -->
<svg version="1.1" id="Layer_2_00000039126939024823027680000017407098825655584941_"
	 xmlns="http://www.w3.org/2000/svg" xmlns:xlink="http://www.w3.org/1999/xlink" x="0px" y="0px" viewBox="0 0 90.9 125.8"
	 style="enable-background:new 0 0 90.9 125.8;" xml:space="preserve">
<style type="text/css">
	.st0{opacity:0.5;fill:#C5FFFE;enable-background:new    ;}
	.st1{fill:#C5FFFE;}
	.st2{clip-path:url(#SVGID_00000160187787671385330840000011365503337429337474_);}
</style>
<g id="Layer_1-2_00000138552681162585653310000003376327086979018656_">
	<g id="Layer_2-2_00000089575700792075398270000016475314756721804971_">
		<g id="Layer_1-2">
			<g id="Layer_2-2">
				<g id="Layer_1-2-2">
					<g id="Logo">
						<g id="Secondary_j">
							<rect x="71.7" y="14.4" class="st0" width="5.8" height="46.7"/>
							<path class="st0" d="M43.5,115.3c-18.2,0-33.1-14.8-33.1-33.1s14.9-33.1,33.1-33.1S76.6,64,76.6,82.2S61.8,115.3,43.5,115.3z
								 M43.5,55.1c-14.9,0-27.1,12.2-27.1,27.1s12.2,27.1,27.1,27.1s27.1-12.2,27.1-27.1S58.5,55.1,43.5,55.1z"/>
							<circle class="st0" cx="42.2" cy="77.4" r="8.2"/>
						</g>
						<g id="Main_j">
							<circle id="Dot3" class="st1" cx="74.6" cy="16.4" r="16.4"/>
							<circle id="Dot2" class="st1" cx="74.5" cy="61.1" r="12"/>
							<circle id="Dot" class="st1" cx="12" cy="82.2" r="12"/>
							<g id="SquareCircle">
								<g>
									<defs>
										<rect id="SVGID_1_" y="81.1" width="86.5" height="44.7"/>
									</defs>
									<clipPath id="SVGID_00000170246492928372989520000014416670913551062949_">
										<use xlink:href="#SVGID_1_"  style="overflow:visible;"/>
									</clipPath>
									<g style="clip-path:url(#SVGID_00000170246492928372989520000014416670913551062949_);">
										<path class="st1" d="M43.2,124.4c-23.9,0-43.3-19.4-43.3-43.3s19.4-43.3,43.3-43.3s43.3,19.4,43.3,43.3
											S67.1,124.4,43.2,124.4z M43.2,61.8C32.6,61.8,24,70.4,24,81.1s8.7,19.3,19.3,19.3s19.3-8.7,19.3-19.3
											S53.9,61.8,43.2,61.8z"/>
									</g>
								</g>
							</g>
							<rect x="62.6" y="61.1" class="st1" width="23.9" height="20.9"/>
						</g>
					</g>
				</g>
			</g>
		</g>
	</g>
</g>
</svg>
